<?xml version="1.0" encoding="UTF-8" standalone="no"?>
<svg width="45px" height="46px" viewBox="0 0 45 46" version="1.1" xmlns="http://www.w3.org/2000/svg" xmlns:xlink="http://www.w3.org/1999/xlink" xmlns:sketch="http://www.bohemiancoding.com/sketch/ns">
    <!-- Generator: Sketch 3.0.3 (7891) - http://www.bohemiancoding.com/sketch -->
    <title>Untitled</title>
    <desc>Created with Sketch.</desc>
    <defs></defs>
    <g id="Page-1" stroke="none" stroke-width="1" fill="none" fill-rule="evenodd" sketch:type="MSPage">
        <path d="M25.2555384,28.8290874 C29.1584879,27.6331522 32,23.9626031 32,19.62 C32,14.3070207 27.7467051,10 22.5,10 C17.2532949,10 13,14.3070207 13,19.62 C13,23.9626031 15.8415121,27.6331522 19.7444616,28.8290874 L20.4161116,33.8553213 C20.5743915,35.0397946 21.6659881,36 22.8559501,36 L22.1440499,36 C23.3332556,36 24.4262569,35.0349419 24.5838884,33.8553213 L25.2555384,28.8290874 Z M22.5,26.64 C26.3286767,26.64 29.4324324,23.4970389 29.4324324,19.62 C29.4324324,15.7429611 26.3286767,12.6 22.5,12.6 C18.6713233,12.6 15.5675676,15.7429611 15.5675676,19.62 C15.5675676,23.4970389 18.6713233,26.64 22.5,26.64 Z" id="Oval-31" fill="#FFFFFF" sketch:type="MSShapeGroup" transform="translate(22.500000, 23.000000) rotate(-45.000000) translate(-22.500000, -23.000000) "></path>
    </g>
</svg>