<?xml version="1.0" encoding="UTF-8"?>
<svg width="160px" height="20px" viewBox="0 0 160 20" version="1.1" xmlns="http://www.w3.org/2000/svg" xmlns:xlink="http://www.w3.org/1999/xlink">
    <!-- Generator: Sketch 44.1 (41455) - http://www.bohemiancoding.com/sketch -->
    <title>__global-footer-logo</title>
    <desc>Created with Sketch.</desc>
    <defs>
        <linearGradient x1="74.1074219%" y1="9.46614583%" x2="30.0086806%" y2="77.4717134%" id="linearGradient-1">
            <stop stop-color="#FFFFFF" offset="0%"></stop>
            <stop stop-color="#FFFFFF" stop-opacity="0" offset="100%"></stop>
        </linearGradient>
    </defs>
    <g id="Exports" stroke="none" stroke-width="1" fill="none" fill-rule="evenodd">
        <g id="__global-footer-logo">
            <g id="Group-2">
                <polygon id="Fill-2" fill="#FFFFFF" opacity="0.5" points="83.0175439 0.701754386 83.0175439 19.4152047 95.1052632 19.4152047 95.1052632 15.2046784 87.1308397 15.2046784 87.1308397 12.0467836 92.8245614 12.0467836 92.8245614 8.07017544 87.1308397 8.07017544 87.1308397 4.9122807 95.1052632 4.9122807 95.1052632 0.701754386"></polygon>
                <polygon id="Fill-2-Copy" fill="#FFFFFF" opacity="0.5" points="115.631579 0.701754386 115.631579 19.4152047 127.719298 19.4152047 127.719298 15.2046784 119.744875 15.2046784 119.744875 12.0467836 125.438596 12.0467836 125.438596 8.07017544 119.744875 8.07017544 119.744875 4.9122807 127.719298 4.9122807 127.719298 0.701754386"></polygon>
                <polygon id="Combined-Shape" fill="#FFFFFF" opacity="0.5" points="107.535088 19.4152047 103.429825 19.4152047 103.429825 12.3976608 97.7280702 0.701754386 102.289474 0.701754386 105.539474 7.25146199 108.612185 0.701754386 113.173588 0.701754386 107.535088 12.2679094"></polygon>
                <path d="M136.24943,19.9048323 C140.31453,20.1945972 142.756907,17.3602437 142.958642,14.4194215 C143.142203,11.7435382 141.616551,9.31854851 138.414718,8.42473214 L136.162316,7.78495644 C135.000035,7.46249671 134.54034,6.76414307 134.602133,5.86335069 C134.673013,4.83008884 135.654304,3.91496902 137.073481,4.01612956 C138.343514,4.106659 139.330186,4.37755476 140.472535,5.26778443 C140.472535,5.26778443 142.017358,2.14672382 142.003423,2.13231987 C141.077021,1.17474655 139.355887,0.451540174 137.351975,0.308699034 C134.080653,0.0755154152 131.07146,2.36362034 130.827924,5.91380209 C130.637094,8.69566092 132.24763,10.9403371 135.09229,11.755447 L137.392799,12.3986518 C138.506972,12.7176824 139.157281,13.4562466 139.091853,14.4100268 C139.011886,15.5757581 138.043317,16.3054207 136.551979,16.1991164 C134.652675,16.0637319 133.622012,15.3286225 132.638538,13.7715225 L130.983865,17.2189984 C132.012087,18.6177058 133.704692,19.7234404 136.24943,19.9048323 Z" id="Combined-Shape" fill="#FFFFFF" opacity="0.5"></path>
                <polygon id="Fill-12" fill="#FFFFFF" points="42.877193 4.9122807 42.877193 19.4152047 38.7719298 19.4152047 38.7719298 4.9122807 33.2982456 4.9122807 33.2982456 0.701754386 48.3508772 0.701754386 48.3508772 4.9122807"></polygon>
                <path d="M6.14973609,19.4111716 L0,19.4111716 L0,0.701754386 L6.14973609,0.701754386 C11.9163722,0.701754386 15.9078947,4.73463544 15.9078947,10 C15.9078947,15.31882 11.9163722,19.4111716 6.14973609,19.4111716 Z M11.6804644,10.1099185 L11.6804644,10.056463 C11.6804644,6.74222337 9.46060452,4.44444444 6.15789474,4.44444444 L4.10526316,4.44444444 L4.10526316,15.6725146 L6.15789474,15.6725146 C9.46060452,15.6725146 11.6804644,13.4241581 11.6804644,10.1099185 Z" id="D" fill="#FFFFFF"></path>
                <path d="M73.3245614,14.7368421 L79.0263158,3.04093567 L75.377193,1.16959064 L68.7631579,14.7368421 L73.3245614,14.7368421 Z" id="Combined-Shape" fill="url(#linearGradient-1)" opacity="0.7"></path>
                <polygon id="Combined-Shape" fill="#FFFFFF" points="66.4824561 0.701754386 61.9210526 0.701754386 71.0438596 19.4152047 73.3245614 14.7368421"></polygon>
                <ellipse id="Oval-3" fill="#FFFFFF" cx="77.2017544" cy="2.10526316" rx="2.05263158" ry="2.10526316"></ellipse>
                <path d="M25.4298246,9.47368421 L23.2631579,13.9181287 L27.5964912,13.9181287 L25.4298246,9.47368421 Z M20.8114035,19.4152047 L16.1929825,19.4152047 L25.372807,0.350877193 L34.6666667,19.4152047 L30.0482456,19.4152047 L29.0789474,17.4269006 L21.7807018,17.4269006 L20.8114035,19.4152047 Z" id="Fill-10-Copy-2" fill="#FFFFFF"></path>
                <path d="M55.9912281,9.47368421 L53.8245614,13.9181287 L58.1578947,13.9181287 L55.9912281,9.47368421 Z M51.6008772,19.4152047 L46.9824561,19.4152047 L56.1622807,0.350877193 L65.4561404,19.4152047 L60.8377193,19.4152047 L59.8684211,17.4269006 L52.5701754,17.4269006 L51.6008772,19.4152047 Z" id="Fill-10-Copy-3" fill="#FFFFFF"></path>
            </g>
        </g>
    </g>
</svg>