<?xml version="1.0" encoding="utf-8"?>
<!-- Generator: Adobe Illustrator 16.0.0, SVG Export Plug-In . SVG Version: 6.00 Build 0)  -->
<!DOCTYPE svg PUBLIC "-//W3C//DTD SVG 1.1//EN" "http://www.w3.org/Graphics/SVG/1.1/DTD/svg11.dtd">
<svg version="1.1" id="Calque_1" xmlns="http://www.w3.org/2000/svg" xmlns:xlink="http://www.w3.org/1999/xlink" x="0px" y="0px"
	 width="28px" height="79px" viewBox="0 0 28 79" enable-background="new 0 0 28 79" xml:space="preserve">
<g id="Arrow_2_">
	<polygon fill="#E6E6E6" points="0,1.5 6,5.5 0,9.5 	"/>
	<rect x="-40" y="5" fill="#E6E6E6" width="40" height="1"/>
</g>
<path fill="#A8A8A8" d="M7,52v6H1v-6H7 M8,51H7H1H0v1v6v1h1h6h1v-1v-6V51L8,51z M17,52v6h-6v-6H17 M18,51h-1h-6h-1v1v6v1h1h6h1v-1
	v-6V51L18,51z M27,52v6h-6v-6H27 M28,51h-1h-6h-1v1v6v1h1h6h1v-1v-6V51L28,51z M27,62v6h-6v-6H27 M28,61h-1h-6h-1v1v6v1h1h6h1v-1v-6
	V61L28,61z M17,62v6h-6v-6H17 M18,61h-1h-6h-1v1v6v1h1h6h1v-1v-6V61L18,61z M7,62v6H1v-6H7 M8,61H7H1H0v1v6v1h1h6h1v-1v-6V61L8,61z
	 M7,72v6H1v-6H7 M8,71H7H1H0v1v6v1h1h6h1v-1v-6V71L8,71z M17,72v6h-6v-6H17 M18,71h-1h-6h-1v1v6v1h1h6h1v-1v-6V71L18,71z M27,72v6
	h-6v-6H27 M28,71h-1h-6h-1v1v6v1h1h6h1v-1v-6V71L28,71z"/>
</svg>
