<?xml version="1.0" encoding="UTF-8" standalone="no"?>
<svg width="36px" height="36px" viewBox="0 0 36 36" version="1.1" xmlns="http://www.w3.org/2000/svg" xmlns:xlink="http://www.w3.org/1999/xlink" xmlns:sketch="http://www.bohemiancoding.com/sketch/ns">
    <!-- Generator: Sketch 3.0.3 (7891) - http://www.bohemiancoding.com/sketch -->
    <title>icon link</title>
    <desc>Created with Sketch.</desc>
    <defs></defs>
    <g id="Page-1" stroke="none" stroke-width="1" fill="none" fill-rule="evenodd" sketch:type="MSPage">
        <g id="1a-template_default-dataveyes-casestudy" sketch:type="MSArtboardGroup" transform="translate(-598.000000, -705.000000)" stroke="#FFFFFF" stroke-width="2">
            <g id="header" sketch:type="MSLayerGroup">
                <g id="Links" transform="translate(376.000000, 706.000000)" sketch:type="MSShapeGroup">
                    <g id="icon-link" transform="translate(223.000000, 0.000000)">
                        <circle id="Oval-10" cx="17" cy="17" r="17"></circle>
                        <g id="Rectangle-35-+-Rectangle-36" transform="translate(17.000000, 16.500000) rotate(45.000000) translate(-17.000000, -16.500000) translate(14.000000, 9.000000)" stroke-linecap="round" stroke-linejoin="round">
                            <path d="M3,8.82352941 C4.65685425,8.82352941 6,7.44645557 6,5.73390459 L6,3.08021945 C6,1.37906122 4.65348288,2.55795385e-13 3,2.55795385e-13 C1.34314575,2.55795385e-13 -2.55795385e-13,1.37889365 -2.55795385e-13,3.09568176 L-2.55795385e-13,4.41176462" id="Rectangle-35"></path>
                            <path d="M3,6.17647059 C1.34314575,6.17647059 -4.54747351e-13,7.55514706 -4.54747351e-13,9.26251299 L-4.54747351e-13,11.9139576 C-4.54747351e-13,13.6183318 1.34651712,15 3,15 C4.65685425,15 6,13.6213235 6,11.9139576 L6,10.5882352" id="Rectangle-36"></path>
                        </g>
                    </g>
                </g>
            </g>
        </g>
    </g>
</svg>