<?xml version="1.0" encoding="UTF-8"?>
<svg width="600px" height="80px" viewBox="0 0 600 80" version="1.1" xmlns="http://www.w3.org/2000/svg" xmlns:xlink="http://www.w3.org/1999/xlink">
    <!-- Generator: Sketch 44.1 (41455) - http://www.bohemiancoding.com/sketch -->
    <title>logo</title>
    <desc>Created with Sketch.</desc>
    <defs>
        <linearGradient x1="74.1074219%" y1="9.46614583%" x2="30.0086806%" y2="77.4717134%" id="linearGradient-1">
            <stop stop-color="#FFFFFF" offset="0%"></stop>
            <stop stop-color="#FFFFFF" stop-opacity="0" offset="100%"></stop>
        </linearGradient>
    </defs>
    <g id="Exports" stroke="none" stroke-width="1" fill="none" fill-rule="evenodd">
        <g id="logo">
            <g id="Group-2" transform="translate(15.000000, 0.000000)">
                <polygon id="Fill-2" fill="#FFFFFF" opacity="0.6" points="331.489633 2.80701754 331.489633 77.6608187 379.755981 77.6608187 379.755981 60.8187135 347.914052 60.8187135 347.914052 48.1871345 370.649123 48.1871345 370.649123 32.2807018 347.914052 32.2807018 347.914052 19.6491228 379.755981 19.6491228 379.755981 2.80701754"></polygon>
                <polygon id="Fill-2-Copy" fill="#FFFFFF" opacity="0.6" points="461.717703 2.80701754 461.717703 77.6608187 509.984051 77.6608187 509.984051 60.8187135 478.142123 60.8187135 478.142123 48.1871345 500.877193 48.1871345 500.877193 32.2807018 478.142123 32.2807018 478.142123 19.6491228 509.984051 19.6491228 509.984051 2.80701754"></polygon>
                <polygon id="Combined-Shape" fill="#FFFFFF" opacity="0.6" points="429.388357 77.6608187 412.996013 77.6608187 412.996013 49.5906433 390.228868 2.80701754 408.442584 2.80701754 421.419856 29.005848 433.689213 2.80701754 451.902929 2.80701754 429.388357 49.0716374"></polygon>
                <path d="M544.044927,79.6193292 C560.276898,80.7783889 570.029328,69.4409748 570.834858,57.677686 C571.567818,46.974153 565.475877,37.2741941 552.690936,33.6989286 L543.697082,31.1398258 C539.056084,29.8499868 537.220519,27.0565723 537.467258,23.4534028 C537.750282,19.3203554 541.668584,15.6598761 547.335367,16.0645182 C552.40662,16.426636 556.346405,17.5102191 560.907813,21.0711377 C560.907813,21.0711377 567.076304,8.58689529 567.020661,8.52927948 C563.321533,4.69898622 556.449033,1.80616069 548.447398,1.23479614 C535.384984,0.302061661 523.369258,9.45448135 522.396816,23.6552083 C521.634829,34.7826437 528.06571,43.7613486 539.424458,47.0217878 L548.610406,49.5946073 C553.059309,50.8707295 555.655995,53.8249864 555.394742,57.6401071 C555.075433,62.3030324 551.20793,65.2216826 545.253005,64.7964654 C537.669074,64.2549274 533.553628,61.3144902 529.626612,55.0860899 L523.019488,68.8759936 C527.125188,74.4708233 533.883768,78.8937617 544.044927,79.6193292 Z" id="Combined-Shape" fill="#FFFFFF" opacity="0.6"></path>
                <polygon id="Fill-12" fill="#FFFFFF" points="171.208931 19.6491228 171.208931 77.6608187 154.816587 77.6608187 154.816587 19.6491228 132.960128 19.6491228 132.960128 2.80701754 193.065391 2.80701754 193.065391 19.6491228"></polygon>
                <path d="M24.5559392,77.6446864 L0,77.6446864 L0,2.80701754 L24.5559392,2.80701754 C47.5821576,2.80701754 63.5203349,18.9385418 63.5203349,40 C63.5203349,61.2752802 47.5821576,77.6446864 24.5559392,77.6446864 Z M46.6401759,40.4396739 L46.6401759,40.225852 C46.6401759,26.9688935 37.77626,17.7777778 24.5885167,17.7777778 L16.3923445,17.7777778 L16.3923445,62.6900585 L24.5885167,62.6900585 C37.77626,62.6900585 46.6401759,53.6966324 46.6401759,40.4396739 Z" id="D" fill="#FFFFFF"></path>
                <path d="M292.785486,58.9473684 L315.552632,12.1637427 L300.981659,4.67836257 L274.57177,58.9473684 L292.785486,58.9473684 Z" id="Combined-Shape" fill="url(#linearGradient-1)" opacity="0.7"></path>
                <polygon id="Combined-Shape" fill="#FFFFFF" points="265.464912 2.80701754 247.251196 2.80701754 283.678628 77.6608187 292.785486 58.9473684"></polygon>
                <ellipse id="Oval-3" fill="#FFFFFF" cx="308.267145" cy="8.42105263" rx="8.19617225" ry="8.42105263"></ellipse>
                <path d="M101.541467,37.8947368 L92.8899522,55.6725146 L110.192982,55.6725146 L101.541467,37.8947368 Z M83.1000797,77.6608187 L64.6586922,77.6608187 L101.313796,1.40350877 L138.424242,77.6608187 L119.982855,77.6608187 L116.11244,69.7076023 L86.9704944,69.7076023 L83.1000797,77.6608187 Z" id="Fill-10-Copy-2" fill="#FFFFFF"></path>
                <path d="M223.573365,37.8947368 L214.92185,55.6725146 L232.22488,55.6725146 L223.573365,37.8947368 Z M206.042663,77.6608187 L187.601276,77.6608187 L224.25638,1.40350877 L261.366826,77.6608187 L242.925439,77.6608187 L239.055024,69.7076023 L209.913078,69.7076023 L206.042663,77.6608187 Z" id="Fill-10-Copy-3" fill="#FFFFFF"></path>
            </g>
        </g>
    </g>
</svg>